<svg width="1163" height="211" viewBox="0 0 1163 211" fill="none" xmlns="http://www.w3.org/2000/svg">
<g filter="url(#filter0_d_2008_143)">
<path fill-rule="evenodd" clip-rule="evenodd" d="M30.0357 28.9778H1133.3V182.356H30.0357V28.9778ZM1133.3 185L30.0357 185L26.3335 185V182.356V28.9778V26.3334V26.3334H1137V28.9778V182.356V185L1133.3 185Z" fill="url(#paint0_linear_2008_143)"/>
</g>
<path d="M44.8447 155.911H89.2714L81.8669 171.778H44.8447V155.911Z" fill="white" fill-opacity="0.24"/>
<path d="M111.485 155.911H155.912L148.507 171.778H104.081L111.485 155.911Z" fill="white" fill-opacity="0.24"/>
<path d="M178.125 155.911H222.551L215.147 171.778H170.72L178.125 155.911Z" fill="white" fill-opacity="0.24"/>
<path d="M244.765 155.911H289.191L281.787 171.778H237.36L244.765 155.911Z" fill="white" fill-opacity="0.24"/>
<path d="M311.405 155.911H355.832L348.427 171.778H304L311.405 155.911Z" fill="white" fill-opacity="0.24"/>
<path d="M378.045 155.911H422.471L415.067 171.778H370.64L378.045 155.911Z" fill="white" fill-opacity="0.24"/>
<path d="M444.685 155.911H489.111L481.707 171.778H437.28L444.685 155.911Z" fill="white" fill-opacity="0.24"/>
<path d="M511.325 155.911H555.752L548.347 171.778H503.92L511.325 155.911Z" fill="white" fill-opacity="0.24"/>
<path d="M577.965 155.911H622.391L614.987 171.778H570.56L577.965 155.911Z" fill="white" fill-opacity="0.24"/>
<path d="M644.605 155.911H689.031L681.627 171.778H637.2L644.605 155.911Z" fill="white" fill-opacity="0.24"/>
<path d="M711.245 155.911H755.671L748.267 171.778H703.84L711.245 155.911Z" fill="white" fill-opacity="0.24"/>
<path d="M777.885 155.911H822.312L814.907 171.778H770.48L777.885 155.911Z" fill="white" fill-opacity="0.24"/>
<path d="M844.525 155.911H888.951L881.547 171.778H837.12L844.525 155.911Z" fill="white" fill-opacity="0.24"/>
<path d="M911.165 155.911H955.591L948.187 171.778H903.76L911.165 155.911Z" fill="white" fill-opacity="0.24"/>
<path d="M977.805 155.911H1022.23L1014.83 171.778H970.4L977.805 155.911Z" fill="white" fill-opacity="0.24"/>
<path d="M1044.44 155.911H1088.87L1081.47 171.778H1037.04L1044.44 155.911Z" fill="white" fill-opacity="0.24"/>
<path d="M1111.08 155.911H1118.49V171.778H1103.68L1111.08 155.911Z" fill="white" fill-opacity="0.24"/>
<path d="M44.8447 39.5557H89.2714L81.8669 55.4223H44.8447V39.5557Z" fill="white" fill-opacity="0.24"/>
<path d="M111.485 39.5557H155.912L148.507 55.4223H104.081L111.485 39.5557Z" fill="white" fill-opacity="0.24"/>
<path d="M178.125 39.5557H222.551L215.147 55.4223H170.72L178.125 39.5557Z" fill="white" fill-opacity="0.24"/>
<path d="M244.765 39.5557H289.191L281.787 55.4223H237.36L244.765 39.5557Z" fill="white" fill-opacity="0.24"/>
<path d="M311.405 39.5557H355.832L348.427 55.4223H304L311.405 39.5557Z" fill="white" fill-opacity="0.24"/>
<path d="M378.045 39.5557H422.471L415.067 55.4223H370.64L378.045 39.5557Z" fill="white" fill-opacity="0.24"/>
<path d="M444.685 39.5557H489.111L481.707 55.4223H437.28L444.685 39.5557Z" fill="white" fill-opacity="0.24"/>
<path d="M511.325 39.5557H555.752L548.347 55.4223H503.92L511.325 39.5557Z" fill="white" fill-opacity="0.24"/>
<path d="M577.965 39.5557H622.391L614.987 55.4223H570.56L577.965 39.5557Z" fill="white" fill-opacity="0.24"/>
<path d="M644.605 39.5557H689.031L681.627 55.4223H637.2L644.605 39.5557Z" fill="white" fill-opacity="0.24"/>
<path d="M711.245 39.5557H755.671L748.267 55.4223H703.84L711.245 39.5557Z" fill="white" fill-opacity="0.24"/>
<path d="M777.885 39.5557H822.312L814.907 55.4223H770.48L777.885 39.5557Z" fill="white" fill-opacity="0.24"/>
<path d="M844.525 39.5557H888.951L881.547 55.4223H837.12L844.525 39.5557Z" fill="white" fill-opacity="0.24"/>
<path d="M911.165 39.5557H955.591L948.187 55.4223H903.76L911.165 39.5557Z" fill="white" fill-opacity="0.24"/>
<path d="M977.805 39.5557H1022.23L1014.83 55.4223H970.4L977.805 39.5557Z" fill="white" fill-opacity="0.24"/>
<path d="M1044.44 39.5557H1088.87L1081.47 55.4223H1037.04L1044.44 39.5557Z" fill="white" fill-opacity="0.24"/>
<path d="M1111.08 39.5557H1118.49V55.4223H1103.68L1111.08 39.5557Z" fill="white" fill-opacity="0.24"/>
<path fill-rule="evenodd" clip-rule="evenodd" d="M26.3335 26.3335H92.9735L104.08 34.2668H185.529V36.9112H107.782L107.782 36.9113H41.1424V81.8668L41.1423 81.8668V129.467L41.1424 129.467V174.422L104.08 174.422L107.782 174.422L185.529 174.422V177.067H104.08L92.9735 185H26.3335V140.045L37.4401 132.111V79.2223L26.3335 71.289V26.3335Z" fill="url(#paint1_linear_2008_143)"/>
<path fill-rule="evenodd" clip-rule="evenodd" d="M1137 26.3335H1070.36L1059.25 34.2668H977.804V36.9112H1055.55L1055.55 36.9113H1122.19V81.8668L1122.19 81.8668V129.467L1122.19 129.467V174.422L1059.25 174.422L1055.55 174.422L977.804 174.422V177.067H1059.25L1070.36 185H1137V140.045L1125.89 132.111V79.2223L1137 71.289V26.3335Z" fill="url(#paint2_linear_2008_143)"/>
<defs>
<filter id="filter0_d_2008_143" x="0.833496" y="0.833374" width="1161.67" height="209.667" filterUnits="userSpaceOnUse" color-interpolation-filters="sRGB">
<feFlood flood-opacity="0" result="BackgroundImageFix"/>
<feColorMatrix in="SourceAlpha" type="matrix" values="0 0 0 0 0 0 0 0 0 0 0 0 0 0 0 0 0 0 127 0" result="hardAlpha"/>
<feOffset/>
<feGaussianBlur stdDeviation="12.75"/>
<feComposite in2="hardAlpha" operator="out"/>
<feColorMatrix type="matrix" values="0 0 0 0 1 0 0 0 0 0.914359 0 0 0 0 0.464746 0 0 0 1 0"/>
<feBlend mode="normal" in2="BackgroundImageFix" result="effect1_dropShadow_2008_143"/>
<feBlend mode="normal" in="SourceGraphic" in2="effect1_dropShadow_2008_143" result="shape"/>
</filter>
<linearGradient id="paint0_linear_2008_143" x1="1047.56" y1="9.96865" x2="983.015" y2="286.369" gradientUnits="userSpaceOnUse">
<stop stop-color="#BF7943"/>
<stop offset="0.425" stop-color="#FFE977"/>
<stop offset="1" stop-color="#C27A44"/>
</linearGradient>
<linearGradient id="paint1_linear_2008_143" x1="172.709" y1="9.96878" x2="42.7619" y2="89.7293" gradientUnits="userSpaceOnUse">
<stop stop-color="#BF7943"/>
<stop offset="0.425" stop-color="#FFE977"/>
<stop offset="1" stop-color="#C27A44"/>
</linearGradient>
<linearGradient id="paint2_linear_2008_143" x1="990.624" y1="9.96878" x2="1120.57" y2="89.7294" gradientUnits="userSpaceOnUse">
<stop stop-color="#BF7943"/>
<stop offset="0.425" stop-color="#FFE977"/>
<stop offset="1" stop-color="#C27A44"/>
</linearGradient>
</defs>
</svg>
