<svg width="134" height="132" viewBox="0 0 134 132" fill="none" xmlns="http://www.w3.org/2000/svg">
<g filter="url(#filter0_b_2008_141)">
<rect x="1" width="132" height="132" rx="13" fill="black"/>
</g>
<path d="M114.745 127.436L109.83 132L126.33 132L133 125.33L133 7.02125L126.33 -3.07783e-05L109.83 -3.14232e-05L114.745 4.21274L122.819 4.21274L126.33 7.72337L126.33 123.926L122.819 127.436L114.745 127.436Z" fill="url(#paint0_linear_2008_141)"/>
<path d="M133 115.149L129.489 110.936L129.489 19.6595L133 15.4468" stroke="#000C1A"/>
<rect x="133" y="102.511" width="2.10638" height="2.10638" transform="rotate(-180 133 102.511)" fill="#000C1A"/>
<rect x="133" y="45.6383" width="2.10638" height="2.10638" transform="rotate(-180 133 45.6383)" fill="#000C1A"/>
<path d="M19.2553 127.436L24.1702 132L7.67021 132L1 125.33L1 7.02125L7.67022 -3.02569e-05L24.1702 -2.96119e-05L19.2553 4.21274L11.1809 4.21274L7.67022 7.72337L7.67021 123.926L11.1809 127.436L19.2553 127.436Z" fill="url(#paint1_linear_2008_141)"/>
<path d="M1 115.149L4.51064 110.936L4.51064 19.6595L1 15.4468" stroke="#000C1A"/>
<rect width="2.10638" height="2.10638" transform="matrix(1 3.90871e-08 3.90871e-08 -1 1 102.511)" fill="#000C1A"/>
<rect width="2.10638" height="2.10638" transform="matrix(1 3.90871e-08 3.90871e-08 -1 1 45.6383)" fill="#000C1A"/>
<line y1="-0.5" x2="4.91489" y2="-0.5" transform="matrix(5.1171e-08 -1 -1 -2.29752e-08 13.6382 123.574)" stroke="#6F6F6F"/>
<line y1="-0.5" x2="4.91489" y2="-0.5" transform="matrix(-1 1.43961e-08 9.35885e-08 1 16.4468 121.468)" stroke="#6F6F6F"/>
<line y1="-0.5" x2="4.91489" y2="-0.5" transform="matrix(5.1171e-08 -1 -1 -2.29752e-08 13.6382 12.6383)" stroke="#6F6F6F"/>
<line y1="-0.5" x2="4.91489" y2="-0.5" transform="matrix(-1 1.43961e-08 9.35885e-08 1 16.4468 10.532)" stroke="#6F6F6F"/>
<line y1="-0.5" x2="4.91489" y2="-0.5" transform="matrix(5.1171e-08 -1 -1 -2.29752e-08 119.659 123.574)" stroke="#6F6F6F"/>
<line y1="-0.5" x2="4.91489" y2="-0.5" transform="matrix(-1 1.43961e-08 9.35885e-08 1 122.468 121.468)" stroke="#6F6F6F"/>
<line y1="-0.5" x2="4.91489" y2="-0.5" transform="matrix(5.1171e-08 -1 -1 -2.29752e-08 119.659 12.6383)" stroke="#6F6F6F"/>
<line y1="-0.5" x2="4.91489" y2="-0.5" transform="matrix(-1 1.43961e-08 9.35885e-08 1 122.468 10.532)" stroke="#6F6F6F"/>
<defs>
<filter id="filter0_b_2008_141" x="-93.4" y="-94.4" width="320.8" height="320.8" filterUnits="userSpaceOnUse" color-interpolation-filters="sRGB">
<feFlood flood-opacity="0" result="BackgroundImageFix"/>
<feGaussianBlur in="BackgroundImageFix" stdDeviation="47.2"/>
<feComposite in2="SourceAlpha" operator="in" result="effect1_backgroundBlur_2008_141"/>
<feBlend mode="normal" in="SourceGraphic" in2="effect1_backgroundBlur_2008_141" result="shape"/>
</filter>
<linearGradient id="paint0_linear_2008_141" x1="111.696" y1="145.614" x2="137.437" y2="142.85" gradientUnits="userSpaceOnUse">
<stop stop-color="#BF7943"/>
<stop offset="0.425" stop-color="#FFE977"/>
<stop offset="1" stop-color="#C27A44"/>
</linearGradient>
<linearGradient id="paint1_linear_2008_141" x1="22.3044" y1="145.614" x2="-3.43746" y2="142.85" gradientUnits="userSpaceOnUse">
<stop stop-color="#BF7943"/>
<stop offset="0.425" stop-color="#FFE977"/>
<stop offset="1" stop-color="#C27A44"/>
</linearGradient>
</defs>
</svg>
