<svg width="1473" height="378" viewBox="0 0 1473 378" fill="none" xmlns="http://www.w3.org/2000/svg">
<g filter="url(#filter0_d_2008_187)">
<path d="M1423.03 64.1539L1404.68 50.2672H1004.28L987.598 64.1539H487.101L470.418 50.2672H70.0199L50 64.1539M1408.02 100.259L1277.04 318.298C1273.43 324.318 1266.92 328 1259.9 328H214.803C207.781 328 201.274 324.318 197.658 318.298L66.6832 100.259" stroke="url(#paint0_linear_2008_187)" stroke-width="4"/>
</g>
<path d="M492.106 52.498H982.593L997.608 40.0001H477.091L492.106 52.498Z" fill="url(#paint1_linear_2008_187)" stroke="url(#paint2_linear_2008_187)" stroke-width="4"/>
<path d="M261.877 315.502H618.898L633.914 328H246.862L261.877 315.502Z" fill="url(#paint3_linear_2008_187)" stroke="url(#paint4_linear_2008_187)" stroke-width="4"/>
<path d="M852.464 315.502H1209.49L1224.5 328H837.449L852.464 315.502Z" fill="url(#paint5_linear_2008_187)" stroke="url(#paint6_linear_2008_187)" stroke-width="4"/>
<path d="M83.3314 102.961L168.49 244.512L161.788 261.284L63.1827 97.3822L83.3314 102.961Z" fill="url(#paint7_linear_2008_187)" stroke="url(#paint8_linear_2008_187)" stroke-width="4"/>
<path d="M1391.28 102.961L1306.12 244.512L1312.83 261.284L1411.43 97.3822L1391.28 102.961Z" fill="url(#paint9_linear_2008_187)" stroke="url(#paint10_linear_2008_187)" stroke-width="4"/>
<path d="M253.435 83.9997H171.831C170.642 83.9997 169.462 84.2118 168.347 84.6262L135.373 96.8817C132.532 97.9379 131.276 101.259 132.709 103.931L166.697 167.323L230.79 281.667C233.443 286.401 238.447 289.333 243.874 289.333H552.848M1220.9 83.9997H1302.57C1303.71 83.9997 1304.85 84.1964 1305.93 84.5813L1340.42 96.8893C1343.34 97.9297 1344.62 101.343 1343.11 104.043L1307.64 167.323L1243.54 281.667C1240.89 286.401 1235.88 289.333 1230.46 289.333H921.484" stroke="url(#paint11_linear_2008_187)" stroke-width="4"/>
<path fill-rule="evenodd" clip-rule="evenodd" d="M1210.26 274.183L1245.59 215.368L1257.74 217.206L1224.61 272.345L1210.26 274.183ZM1152.85 274.183H1203.64L1237.06 218.541L1238.97 215.368H1188.18L1152.85 274.183ZM1146.23 274.183H1095.44L1130.77 215.368H1181.56L1179.65 218.541L1146.23 274.183ZM1038.03 274.183H1088.81L1122.24 218.541L1124.14 215.368H1073.36L1038.03 274.183Z" fill="url(#paint12_linear_2008_187)"/>
<path d="M1245.59 215.368L1245.89 213.39L1244.57 213.19L1243.88 214.338L1245.59 215.368ZM1210.26 274.183L1208.55 273.153L1206.42 276.691L1210.52 276.167L1210.26 274.183ZM1257.74 217.206L1259.45 218.236L1260.99 215.675L1258.04 215.228L1257.74 217.206ZM1224.61 272.345L1224.87 274.329L1225.83 274.206L1226.33 273.375L1224.61 272.345ZM1203.64 274.183V276.183H1204.77L1205.35 275.213L1203.64 274.183ZM1152.85 274.183L1151.14 273.153L1149.32 276.183H1152.85V274.183ZM1237.06 218.541L1235.35 217.511L1235.35 217.511L1237.06 218.541ZM1238.97 215.368L1240.68 216.398L1242.5 213.368H1238.97V215.368ZM1188.18 215.368V213.368H1187.05L1186.47 214.338L1188.18 215.368ZM1095.44 274.183L1093.72 273.153L1091.9 276.183H1095.44V274.183ZM1146.23 274.183V276.183H1147.36L1147.94 275.213L1146.23 274.183ZM1130.77 215.368V213.368H1129.64L1129.05 214.338L1130.77 215.368ZM1181.56 215.368L1183.27 216.398L1185.09 213.368H1181.56V215.368ZM1179.65 218.541L1181.36 219.571L1181.36 219.571L1179.65 218.541ZM1088.81 274.183V276.183H1089.95L1090.53 275.213L1088.81 274.183ZM1038.03 274.183L1036.31 273.153L1034.49 276.183H1038.03V274.183ZM1122.24 218.541L1123.95 219.571L1123.95 219.571L1122.24 218.541ZM1124.14 215.368L1125.86 216.398L1127.68 213.368H1124.14V215.368ZM1073.36 215.368V213.368H1072.23L1071.64 214.338L1073.36 215.368ZM1243.88 214.338L1208.55 273.153L1211.98 275.213L1247.31 216.398L1243.88 214.338ZM1258.04 215.228L1245.89 213.39L1245.29 217.345L1257.44 219.183L1258.04 215.228ZM1226.33 273.375L1259.45 218.236L1256.02 216.176L1222.9 271.315L1226.33 273.375ZM1210.52 276.167L1224.87 274.329L1224.36 270.361L1210.01 272.199L1210.52 276.167ZM1203.64 272.183H1152.85V276.183H1203.64V272.183ZM1235.35 217.511L1201.92 273.153L1205.35 275.213L1238.77 219.571L1235.35 217.511ZM1237.25 214.338L1235.35 217.511L1238.77 219.571L1240.68 216.398L1237.25 214.338ZM1188.18 217.368H1238.97V213.368H1188.18V217.368ZM1154.56 275.213L1189.89 216.398L1186.47 214.338L1151.14 273.153L1154.56 275.213ZM1095.44 276.183H1146.23V272.183H1095.44V276.183ZM1129.05 214.338L1093.72 273.153L1097.15 275.213L1132.48 216.398L1129.05 214.338ZM1181.56 213.368H1130.77V217.368H1181.56V213.368ZM1181.36 219.571L1183.27 216.398L1179.84 214.338L1177.93 217.511L1181.36 219.571ZM1147.94 275.213L1181.36 219.571L1177.93 217.511L1144.51 273.153L1147.94 275.213ZM1088.81 272.183H1038.03V276.183H1088.81V272.183ZM1120.52 217.511L1087.1 273.153L1090.53 275.213L1123.95 219.571L1120.52 217.511ZM1122.43 214.338L1120.52 217.511L1123.95 219.571L1125.86 216.398L1122.43 214.338ZM1073.36 217.368H1124.14V213.368H1073.36V217.368ZM1039.74 275.213L1075.07 216.398L1071.64 214.338L1036.31 273.153L1039.74 275.213Z" fill="url(#paint13_linear_2008_187)"/>
<path fill-rule="evenodd" clip-rule="evenodd" d="M262.808 274.183L227.478 215.368L215.333 217.206L248.455 272.345L262.808 274.183ZM320.219 274.183H269.432L236.008 218.541L234.102 215.368H284.889L320.219 274.183ZM326.843 274.183H377.63L342.3 215.368H291.513L293.42 218.541L326.843 274.183ZM435.041 274.183H384.254L350.831 218.541L348.924 215.368H399.711L435.041 274.183Z" fill="url(#paint14_linear_2008_187)"/>
<path d="M227.478 215.368L227.178 213.39L228.502 213.19L229.192 214.338L227.478 215.368ZM262.808 274.183L264.522 273.153L266.647 276.691L262.554 276.167L262.808 274.183ZM215.333 217.206L213.619 218.236L212.081 215.675L215.034 215.228L215.333 217.206ZM248.455 272.345L248.201 274.329L247.239 274.206L246.74 273.375L248.455 272.345ZM269.432 274.183V276.183H268.3L267.717 275.213L269.432 274.183ZM320.219 274.183L321.933 273.153L323.753 276.183H320.219V274.183ZM236.008 218.541L237.723 217.511L237.723 217.511L236.008 218.541ZM234.102 215.368L232.387 216.398L230.567 213.368H234.102V215.368ZM284.889 215.368V213.368H286.021L286.603 214.338L284.889 215.368ZM377.63 274.183L379.345 273.153L381.165 276.183H377.63V274.183ZM326.843 274.183V276.183H325.712L325.129 275.213L326.843 274.183ZM342.3 215.368V213.368H343.432L344.015 214.338L342.3 215.368ZM291.513 215.368L289.799 216.398L287.979 213.368H291.513V215.368ZM293.42 218.541L291.705 219.571L291.705 219.571L293.42 218.541ZM384.254 274.183V276.183H383.123L382.54 275.213L384.254 274.183ZM435.041 274.183L436.756 273.153L438.576 276.183H435.041V274.183ZM350.831 218.541L349.116 219.571L349.116 219.571L350.831 218.541ZM348.924 215.368L347.21 216.398L345.39 213.368H348.924V215.368ZM399.711 215.368V213.368H400.843L401.426 214.338L399.711 215.368ZM229.192 214.338L264.522 273.153L261.093 275.213L225.763 216.398L229.192 214.338ZM215.034 215.228L227.178 213.39L227.777 217.345L215.632 219.183L215.034 215.228ZM246.74 273.375L213.619 218.236L217.047 216.176L250.169 271.315L246.74 273.375ZM262.554 276.167L248.201 274.329L248.709 270.361L263.062 272.199L262.554 276.167ZM269.432 272.183H320.219V276.183H269.432V272.183ZM237.723 217.511L271.146 273.153L267.717 275.213L234.294 219.571L237.723 217.511ZM235.816 214.338L237.723 217.511L234.294 219.571L232.387 216.398L235.816 214.338ZM284.889 217.368H234.102V213.368H284.889V217.368ZM318.504 275.213L283.174 216.398L286.603 214.338L321.933 273.153L318.504 275.213ZM377.63 276.183H326.843V272.183H377.63V276.183ZM344.015 214.338L379.345 273.153L375.916 275.213L340.586 216.398L344.015 214.338ZM291.513 213.368H342.3V217.368H291.513V213.368ZM291.705 219.571L289.799 216.398L293.228 214.338L295.134 217.511L291.705 219.571ZM325.129 275.213L291.705 219.571L295.134 217.511L328.558 273.153L325.129 275.213ZM384.254 272.183H435.041V276.183H384.254V272.183ZM352.545 217.511L385.969 273.153L382.54 275.213L349.116 219.571L352.545 217.511ZM350.639 214.338L352.545 217.511L349.116 219.571L347.21 216.398L350.639 214.338ZM399.711 217.368H348.924V213.368H399.711V217.368ZM433.327 275.213L397.997 216.398L401.426 214.338L436.756 273.153L433.327 275.213Z" fill="url(#paint15_linear_2008_187)"/>
<g filter="url(#filter1_dd_2008_187)">
<path d="M900.49 234.035V220H961.824L900.49 234.035ZM961.824 220V234.105H939.929V271.93H922.666V234.105H900.49V220H961.824Z" fill="url(#paint16_linear_2008_187)"/>
<path d="M864.273 218.877C870.683 218.877 876.46 220.07 881.607 222.456C886.8 224.795 890.846 228.047 893.747 232.21C896.694 236.327 898.168 240.982 898.168 246.175C898.168 251.321 896.694 255.953 893.747 260.07C890.846 264.187 886.823 267.438 881.677 269.824C876.531 272.164 870.753 273.333 864.343 273.333C858.168 273.333 852.46 272.164 847.221 269.824C841.981 267.438 837.817 264.187 834.729 260.07C831.688 255.906 830.168 251.275 830.168 246.175C830.168 241.029 831.688 236.374 834.729 232.21C837.817 228.047 841.957 224.795 847.15 222.456C852.39 220.07 858.098 218.877 864.273 218.877ZM864.343 260.21C866.963 260.21 869.466 259.649 871.852 258.526C874.285 257.403 876.25 255.789 877.747 253.684C879.244 251.579 879.993 249.076 879.993 246.175C879.993 243.275 879.221 240.772 877.677 238.666C876.18 236.514 874.215 234.9 871.782 233.824C869.349 232.702 866.823 232.14 864.203 232.14C861.536 232.14 859.01 232.702 856.624 233.824C854.238 234.947 852.297 236.585 850.8 238.737C849.349 240.842 848.624 243.321 848.624 246.175C848.624 249.076 849.373 251.579 850.87 253.684C852.367 255.789 854.308 257.403 856.694 258.526C859.127 259.649 861.677 260.21 864.343 260.21Z" fill="url(#paint17_linear_2008_187)"/>
<path d="M805.217 220C809.568 220 813.404 220.725 816.726 222.175C820.095 223.625 822.691 225.661 824.516 228.28C826.387 230.854 827.323 233.848 827.323 237.263V237.544C827.323 243.158 825.404 247.509 821.568 250.596C817.732 253.637 812.492 255.158 805.849 255.158H783.323V271.93H765.989V220H805.217ZM802.13 242.877C804.562 242.877 806.364 242.807 807.533 242.666C808.75 242.526 809.755 242.082 810.551 241.333C811.346 240.585 811.744 239.345 811.744 237.614C811.744 235.836 811.346 234.549 810.551 233.754C809.755 232.959 808.726 232.468 807.463 232.28C806.2 232.093 804.422 232 802.13 232H799.814C798.878 232 797.241 232.023 794.902 232.07C792.562 232.07 788.703 232.07 783.323 232.07V242.877H802.059H802.13Z" fill="url(#paint18_linear_2008_187)"/>
<path d="M736.159 243.789L764.44 271.93H743.177L722.124 250.175V271.93H704.791V220H722.124V238.035L741.914 220H763.388L736.159 243.789Z" fill="url(#paint19_linear_2008_187)"/>
<path d="M632.458 246.035C632.458 240.842 633.979 236.164 637.02 232C640.108 227.836 644.295 224.585 649.581 222.245C654.915 219.859 660.809 218.667 667.266 218.667C673.067 218.667 678.306 219.602 682.985 221.474C687.663 223.298 691.499 225.895 694.494 229.263C697.488 232.585 699.476 236.491 700.459 240.982H682.494C681.792 239.111 680.599 237.497 678.915 236.14C677.277 234.737 675.429 233.684 673.371 232.982C671.312 232.281 669.301 231.93 667.336 231.93C664.575 231.93 661.885 232.491 659.266 233.614C656.692 234.737 654.587 236.374 652.95 238.526C651.359 240.631 650.564 243.134 650.564 246.035C650.564 248.936 651.359 251.462 652.95 253.614C654.54 255.719 656.599 257.333 659.125 258.456C661.698 259.532 664.435 260.07 667.336 260.07C670.564 260.07 673.535 259.298 676.248 257.754C679.008 256.21 681.043 254.012 682.353 251.158H700.388C699.359 255.602 697.347 259.509 694.353 262.877C691.359 266.199 687.546 268.772 682.915 270.596C678.283 272.421 673.067 273.333 667.266 273.333C660.856 273.333 654.985 272.14 649.651 269.754C644.365 267.368 640.178 264.093 637.09 259.93C634.002 255.766 632.458 251.134 632.458 246.035Z" fill="url(#paint20_linear_2008_187)"/>
<path d="M637.623 271.93H620.149L615.307 263.017H585.904L581.062 271.93H563.588L591.728 220H609.483L637.623 271.93ZM600.641 235.859L592.219 251.298H608.991L600.641 235.859Z" fill="url(#paint21_linear_2008_187)"/>
<path d="M566.615 220V251.228C566.615 254.596 565.843 257.824 564.299 260.912C562.802 264 560.042 266.62 556.019 268.772C552.042 270.877 546.592 271.93 539.668 271.93C533.118 271.93 527.878 270.62 523.949 268C520.019 265.38 517.258 262.339 515.668 258.877C514.124 255.415 513.352 252.257 513.352 249.403H529.633C529.633 252.257 530.545 254.713 532.37 256.772C534.194 258.83 536.884 259.859 540.44 259.859C543.153 259.859 545.399 259.087 547.177 257.544C548.954 255.953 549.843 253.848 549.843 251.228V220H566.615Z" fill="url(#paint22_linear_2008_187)"/>
</g>
<defs>
<filter id="filter0_d_2008_187" x="0.859863" y="0.267334" width="1471.38" height="377.732" filterUnits="userSpaceOnUse" color-interpolation-filters="sRGB">
<feFlood flood-opacity="0" result="BackgroundImageFix"/>
<feColorMatrix in="SourceAlpha" type="matrix" values="0 0 0 0 0 0 0 0 0 0 0 0 0 0 0 0 0 0 127 0" result="hardAlpha"/>
<feOffset/>
<feGaussianBlur stdDeviation="24"/>
<feComposite in2="hardAlpha" operator="out"/>
<feColorMatrix type="matrix" values="0 0 0 0 1 0 0 0 0 0.914359 0 0 0 0 0.464746 0 0 0 1 0"/>
<feBlend mode="normal" in2="BackgroundImageFix" result="effect1_dropShadow_2008_187"/>
<feBlend mode="normal" in="SourceGraphic" in2="effect1_dropShadow_2008_187" result="shape"/>
</filter>
<filter id="filter1_dd_2008_187" x="475.252" y="180.567" width="524.672" height="130.867" filterUnits="userSpaceOnUse" color-interpolation-filters="sRGB">
<feFlood flood-opacity="0" result="BackgroundImageFix"/>
<feColorMatrix in="SourceAlpha" type="matrix" values="0 0 0 0 0 0 0 0 0 0 0 0 0 0 0 0 0 0 127 0" result="hardAlpha"/>
<feOffset/>
<feGaussianBlur stdDeviation="19.05"/>
<feComposite in2="hardAlpha" operator="out"/>
<feColorMatrix type="matrix" values="0 0 0 0 1 0 0 0 0 0.914359 0 0 0 0 0.464746 0 0 0 1 0"/>
<feBlend mode="normal" in2="BackgroundImageFix" result="effect1_dropShadow_2008_187"/>
<feColorMatrix in="SourceAlpha" type="matrix" values="0 0 0 0 0 0 0 0 0 0 0 0 0 0 0 0 0 0 127 0" result="hardAlpha"/>
<feOffset/>
<feGaussianBlur stdDeviation="4.55"/>
<feComposite in2="hardAlpha" operator="out"/>
<feColorMatrix type="matrix" values="0 0 0 0 0.760784 0 0 0 0 0.478431 0 0 0 0 0.266667 0 0 0 1 0"/>
<feBlend mode="normal" in2="effect1_dropShadow_2008_187" result="effect2_dropShadow_2008_187"/>
<feBlend mode="normal" in="SourceGraphic" in2="effect2_dropShadow_2008_187" result="shape"/>
</filter>
<linearGradient id="paint0_linear_2008_187" x1="1312.46" y1="356.645" x2="1160.39" y2="-103.272" gradientUnits="userSpaceOnUse">
<stop stop-color="#BF7943"/>
<stop offset="0.425" stop-color="#FFE977"/>
<stop offset="1" stop-color="#C27A44"/>
</linearGradient>
<linearGradient id="paint1_linear_2008_187" x1="955.692" y1="53.7871" x2="954.793" y2="30.8634" gradientUnits="userSpaceOnUse">
<stop stop-color="#BF7943"/>
<stop offset="0.425" stop-color="#FFE977"/>
<stop offset="1" stop-color="#C27A44"/>
</linearGradient>
<linearGradient id="paint2_linear_2008_187" x1="955.692" y1="53.7871" x2="954.793" y2="30.8634" gradientUnits="userSpaceOnUse">
<stop stop-color="#BF7943"/>
<stop offset="0.425" stop-color="#FFE977"/>
<stop offset="1" stop-color="#C27A44"/>
</linearGradient>
<linearGradient id="paint3_linear_2008_187" x1="602.745" y1="314.213" x2="601.537" y2="337.108" gradientUnits="userSpaceOnUse">
<stop stop-color="#BF7943"/>
<stop offset="0.425" stop-color="#FFE977"/>
<stop offset="1" stop-color="#C27A44"/>
</linearGradient>
<linearGradient id="paint4_linear_2008_187" x1="602.745" y1="314.213" x2="601.537" y2="337.108" gradientUnits="userSpaceOnUse">
<stop stop-color="#BF7943"/>
<stop offset="0.425" stop-color="#FFE977"/>
<stop offset="1" stop-color="#C27A44"/>
</linearGradient>
<linearGradient id="paint5_linear_2008_187" x1="1193.33" y1="314.213" x2="1192.12" y2="337.108" gradientUnits="userSpaceOnUse">
<stop stop-color="#BF7943"/>
<stop offset="0.425" stop-color="#FFE977"/>
<stop offset="1" stop-color="#C27A44"/>
</linearGradient>
<linearGradient id="paint6_linear_2008_187" x1="1193.33" y1="314.213" x2="1192.12" y2="337.108" gradientUnits="userSpaceOnUse">
<stop stop-color="#BF7943"/>
<stop offset="0.425" stop-color="#FFE977"/>
<stop offset="1" stop-color="#C27A44"/>
</linearGradient>
<linearGradient id="paint7_linear_2008_187" x1="168.658" y1="241.912" x2="144.233" y2="252.732" gradientUnits="userSpaceOnUse">
<stop stop-color="#BF7943"/>
<stop offset="0.425" stop-color="#FFE977"/>
<stop offset="1" stop-color="#C27A44"/>
</linearGradient>
<linearGradient id="paint8_linear_2008_187" x1="168.658" y1="241.912" x2="144.233" y2="252.732" gradientUnits="userSpaceOnUse">
<stop stop-color="#BF7943"/>
<stop offset="0.425" stop-color="#FFE977"/>
<stop offset="1" stop-color="#C27A44"/>
</linearGradient>
<linearGradient id="paint9_linear_2008_187" x1="1305.96" y1="241.912" x2="1330.38" y2="252.732" gradientUnits="userSpaceOnUse">
<stop stop-color="#BF7943"/>
<stop offset="0.425" stop-color="#FFE977"/>
<stop offset="1" stop-color="#C27A44"/>
</linearGradient>
<linearGradient id="paint10_linear_2008_187" x1="1305.96" y1="241.912" x2="1330.38" y2="252.732" gradientUnits="userSpaceOnUse">
<stop stop-color="#BF7943"/>
<stop offset="0.425" stop-color="#FFE977"/>
<stop offset="1" stop-color="#C27A44"/>
</linearGradient>
<linearGradient id="paint11_linear_2008_187" x1="1248.08" y1="310.511" x2="1151.33" y2="-39.9856" gradientUnits="userSpaceOnUse">
<stop stop-color="#BF7943"/>
<stop offset="0.425" stop-color="#FFE977"/>
<stop offset="1" stop-color="#C27A44"/>
</linearGradient>
<linearGradient id="paint12_linear_2008_187" x1="1306.32" y1="303.269" x2="1128.76" y2="183.908" gradientUnits="userSpaceOnUse">
<stop stop-color="#FFE977"/>
<stop offset="1" stop-color="#C27A44" stop-opacity="0"/>
</linearGradient>
<linearGradient id="paint13_linear_2008_187" x1="1055.72" y1="280.249" x2="1095.4" y2="189.569" gradientUnits="userSpaceOnUse">
<stop stop-color="#BF7943"/>
<stop offset="0.425" stop-color="#FFE977"/>
<stop offset="1" stop-color="#C27A44"/>
</linearGradient>
<linearGradient id="paint14_linear_2008_187" x1="166.747" y1="303.269" x2="344.306" y2="183.908" gradientUnits="userSpaceOnUse">
<stop stop-color="#FFE977"/>
<stop offset="1" stop-color="#C27A44" stop-opacity="0"/>
</linearGradient>
<linearGradient id="paint15_linear_2008_187" x1="417.349" y1="280.249" x2="377.668" y2="189.569" gradientUnits="userSpaceOnUse">
<stop stop-color="#BF7943"/>
<stop offset="0.425" stop-color="#FFE977"/>
<stop offset="1" stop-color="#C27A44"/>
</linearGradient>
<linearGradient id="paint16_linear_2008_187" x1="955.03" y1="212.844" x2="894.112" y2="269.092" gradientUnits="userSpaceOnUse">
<stop stop-color="#BF7943"/>
<stop offset="0.425" stop-color="#FFE977"/>
<stop offset="1" stop-color="#C27A44"/>
</linearGradient>
<linearGradient id="paint17_linear_2008_187" x1="890.636" y1="211.374" x2="826.569" y2="273.916" gradientUnits="userSpaceOnUse">
<stop stop-color="#BF7943"/>
<stop offset="0.425" stop-color="#FFE977"/>
<stop offset="1" stop-color="#C27A44"/>
</linearGradient>
<linearGradient id="paint18_linear_2008_187" x1="820.529" y1="212.844" x2="759.611" y2="269.092" gradientUnits="userSpaceOnUse">
<stop stop-color="#BF7943"/>
<stop offset="0.425" stop-color="#FFE977"/>
<stop offset="1" stop-color="#C27A44"/>
</linearGradient>
<linearGradient id="paint19_linear_2008_187" x1="757.834" y1="212.844" x2="697.073" y2="267.406" gradientUnits="userSpaceOnUse">
<stop stop-color="#BF7943"/>
<stop offset="0.425" stop-color="#FFE977"/>
<stop offset="1" stop-color="#C27A44"/>
</linearGradient>
<linearGradient id="paint20_linear_2008_187" x1="692.927" y1="211.134" x2="628.619" y2="273.67" gradientUnits="userSpaceOnUse">
<stop stop-color="#BF7943"/>
<stop offset="0.425" stop-color="#FFE977"/>
<stop offset="1" stop-color="#C27A44"/>
</linearGradient>
<linearGradient id="paint21_linear_2008_187" x1="629.423" y1="212.844" x2="568.668" y2="280.559" gradientUnits="userSpaceOnUse">
<stop stop-color="#BF7943"/>
<stop offset="0.425" stop-color="#FFE977"/>
<stop offset="1" stop-color="#C27A44"/>
</linearGradient>
<linearGradient id="paint22_linear_2008_187" x1="560.716" y1="212.844" x2="501.064" y2="260.676" gradientUnits="userSpaceOnUse">
<stop stop-color="#BF7943"/>
<stop offset="0.425" stop-color="#FFE977"/>
<stop offset="1" stop-color="#C27A44"/>
</linearGradient>
</defs>
</svg>
