<svg width="4325" height="3231" viewBox="0 0 4325 3231" fill="none" xmlns="http://www.w3.org/2000/svg">
<g filter="url(#filter0_dddddd_256_1651)">
<path d="M2849.03 1490.15L2830.68 1476.27H2430.28L2413.6 1490.15H1913.1L1896.42 1476.27H1496.02L1476 1490.15M2834.02 1526.26L2703.04 1744.3C2699.43 1750.32 2692.92 1754 2685.9 1754H1640.8C1633.78 1754 1627.27 1750.32 1623.66 1744.3L1492.68 1526.26" stroke="url(#paint0_linear_256_1651)" stroke-width="4"/>
</g>
<g filter="url(#filter1_dddddd_256_1651)">
<path d="M1918.11 1478.5H2408.59L2423.61 1466H1903.09L1918.11 1478.5Z" fill="url(#paint1_linear_256_1651)"/>
<path d="M1918.11 1478.5H2408.59L2423.61 1466H1903.09L1918.11 1478.5Z" stroke="url(#paint2_linear_256_1651)" stroke-width="4"/>
</g>
<g filter="url(#filter2_dddddd_256_1651)">
<path d="M1687.88 1741.5H2044.9L2059.91 1754H1672.86L1687.88 1741.5Z" fill="url(#paint3_linear_256_1651)"/>
<path d="M1687.88 1741.5H2044.9L2059.91 1754H1672.86L1687.88 1741.5Z" stroke="url(#paint4_linear_256_1651)" stroke-width="4"/>
</g>
<g filter="url(#filter3_dddddd_256_1651)">
<path d="M2278.46 1741.5H2635.49L2650.5 1754H2263.45L2278.46 1741.5Z" fill="url(#paint5_linear_256_1651)"/>
<path d="M2278.46 1741.5H2635.49L2650.5 1754H2263.45L2278.46 1741.5Z" stroke="url(#paint6_linear_256_1651)" stroke-width="4"/>
</g>
<g filter="url(#filter4_dddddd_256_1651)">
<path d="M1509.33 1528.96L1594.49 1670.51L1587.79 1687.28L1489.18 1523.38L1509.33 1528.96Z" fill="url(#paint7_linear_256_1651)"/>
<path d="M1509.33 1528.96L1594.49 1670.51L1587.79 1687.28L1489.18 1523.38L1509.33 1528.96Z" stroke="url(#paint8_linear_256_1651)" stroke-width="4"/>
</g>
<g filter="url(#filter5_dddddd_256_1651)">
<path d="M2817.28 1528.96L2732.12 1670.51L2738.83 1687.28L2837.43 1523.38L2817.28 1528.96Z" fill="url(#paint9_linear_256_1651)"/>
<path d="M2817.28 1528.96L2732.12 1670.51L2738.83 1687.28L2837.43 1523.38L2817.28 1528.96Z" stroke="url(#paint10_linear_256_1651)" stroke-width="4"/>
</g>
<path d="M1679.43 1510H1597.83C1596.64 1510 1595.46 1510.21 1594.35 1510.63L1561.37 1522.88C1558.53 1523.94 1557.28 1527.26 1558.71 1529.93L1592.7 1593.32L1656.79 1707.67C1659.44 1712.4 1664.45 1715.33 1669.87 1715.33H1978.85M2646.9 1510H2728.57C2729.71 1510 2730.85 1510.2 2731.93 1510.58L2766.42 1522.89C2769.34 1523.93 2770.62 1527.34 2769.11 1530.04L2733.64 1593.32L2669.54 1707.67C2666.89 1712.4 2661.88 1715.33 2656.46 1715.33H2347.48" stroke="url(#paint11_linear_256_1651)" stroke-width="4"/>
<path fill-rule="evenodd" clip-rule="evenodd" d="M2636.26 1700.18L2671.59 1641.37L2683.74 1643.21L2650.61 1698.35L2636.26 1700.18ZM2578.85 1700.18H2629.64L2663.06 1644.54L2664.97 1641.37H2614.18L2578.85 1700.18ZM2572.23 1700.18H2521.44L2556.77 1641.37H2607.56L2605.65 1644.54L2572.23 1700.18ZM2464.03 1700.18H2514.81L2548.24 1644.54L2550.14 1641.37H2499.36L2464.03 1700.18Z" fill="url(#paint12_linear_256_1651)"/>
<path d="M2671.59 1641.37L2671.89 1639.39L2670.57 1639.19L2669.88 1640.34L2671.59 1641.37ZM2636.26 1700.18L2634.55 1699.15L2632.42 1702.69L2636.52 1702.17L2636.26 1700.18ZM2683.74 1643.21L2685.45 1644.24L2686.99 1641.68L2684.04 1641.23L2683.74 1643.21ZM2650.61 1698.35L2650.87 1700.33L2651.83 1700.21L2652.33 1699.38L2650.61 1698.35ZM2629.64 1700.18V1702.18H2630.77L2631.35 1701.21L2629.64 1700.18ZM2578.85 1700.18L2577.14 1699.15L2575.32 1702.18H2578.85V1700.18ZM2663.06 1644.54L2661.35 1643.51L2663.06 1644.54ZM2664.97 1641.37L2666.68 1642.4L2668.5 1639.37H2664.97V1641.37ZM2614.18 1641.37V1639.37H2613.05L2612.47 1640.34L2614.18 1641.37ZM2521.44 1700.18L2519.72 1699.15L2517.9 1702.18H2521.44V1700.18ZM2572.23 1700.18V1702.18H2573.36L2573.94 1701.21L2572.23 1700.18ZM2556.77 1641.37V1639.37H2555.64L2555.05 1640.34L2556.77 1641.37ZM2607.56 1641.37L2609.27 1642.4L2611.09 1639.37H2607.56V1641.37ZM2605.65 1644.54L2607.36 1645.57L2605.65 1644.54ZM2514.81 1700.18V1702.18H2515.95L2516.53 1701.21L2514.81 1700.18ZM2464.03 1700.18L2462.31 1699.15L2460.49 1702.18H2464.03V1700.18ZM2548.24 1644.54L2549.95 1645.57L2548.24 1644.54ZM2550.14 1641.37L2551.86 1642.4L2553.68 1639.37H2550.14V1641.37ZM2499.36 1641.37V1639.37H2498.23L2497.64 1640.34L2499.36 1641.37ZM2669.88 1640.34L2634.55 1699.15L2637.98 1701.21L2673.31 1642.4L2669.88 1640.34ZM2684.04 1641.23L2671.89 1639.39L2671.29 1643.35L2683.44 1645.18L2684.04 1641.23ZM2652.33 1699.38L2685.45 1644.24L2682.02 1642.18L2648.9 1697.32L2652.33 1699.38ZM2636.52 1702.17L2650.87 1700.33L2650.36 1696.36L2636.01 1698.2L2636.52 1702.17ZM2629.64 1698.18H2578.85V1702.18H2629.64V1698.18ZM2661.35 1643.51L2627.92 1699.15L2631.35 1701.21L2664.77 1645.57L2661.35 1643.51ZM2663.25 1640.34L2661.35 1643.51L2664.77 1645.57L2666.68 1642.4L2663.25 1640.34ZM2614.18 1643.37H2664.97V1639.37H2614.18V1643.37ZM2580.56 1701.21L2615.89 1642.4L2612.47 1640.34L2577.14 1699.15L2580.56 1701.21ZM2521.44 1702.18H2572.23V1698.18H2521.44V1702.18ZM2555.05 1640.34L2519.72 1699.15L2523.15 1701.21L2558.48 1642.4L2555.05 1640.34ZM2607.56 1639.37H2556.77V1643.37H2607.56V1639.37ZM2607.36 1645.57L2609.27 1642.4L2605.84 1640.34L2603.93 1643.51L2607.36 1645.57ZM2573.94 1701.21L2607.36 1645.57L2603.93 1643.51L2570.51 1699.15L2573.94 1701.21ZM2514.81 1698.18H2464.03V1702.18H2514.81V1698.18ZM2546.52 1643.51L2513.1 1699.15L2516.53 1701.21L2549.95 1645.57L2546.52 1643.51ZM2548.43 1640.34L2546.52 1643.51L2549.95 1645.57L2551.86 1642.4L2548.43 1640.34ZM2499.36 1643.37H2550.14V1639.37H2499.36V1643.37ZM2465.74 1701.21L2501.07 1642.4L2497.64 1640.34L2462.31 1699.15L2465.74 1701.21Z" fill="url(#paint13_linear_256_1651)"/>
<path fill-rule="evenodd" clip-rule="evenodd" d="M1688.81 1700.18L1653.48 1641.37L1641.33 1643.21L1674.45 1698.35L1688.81 1700.18ZM1746.22 1700.18H1695.43L1662.01 1644.54L1660.1 1641.37H1710.89L1746.22 1700.18ZM1752.84 1700.18H1803.63L1768.3 1641.37H1717.51L1719.42 1644.54L1752.84 1700.18ZM1861.04 1700.18H1810.25L1776.83 1644.54L1774.92 1641.37H1825.71L1861.04 1700.18Z" fill="url(#paint14_linear_256_1651)"/>
<path d="M1653.48 1641.37L1653.18 1639.39L1654.5 1639.19L1655.19 1640.34L1653.48 1641.37ZM1688.81 1700.18L1690.52 1699.15L1692.65 1702.69L1688.55 1702.17L1688.81 1700.18ZM1641.33 1643.21L1639.62 1644.24L1638.08 1641.68L1641.03 1641.23L1641.33 1643.21ZM1674.45 1698.35L1674.2 1700.33L1673.24 1700.21L1672.74 1699.38L1674.45 1698.35ZM1695.43 1700.18V1702.18H1694.3L1693.72 1701.21L1695.43 1700.18ZM1746.22 1700.18L1747.93 1699.15L1749.75 1702.18H1746.22V1700.18ZM1662.01 1644.54L1663.72 1643.51L1662.01 1644.54ZM1660.1 1641.37L1658.39 1642.4L1656.57 1639.37H1660.1V1641.37ZM1710.89 1641.37V1639.37H1712.02L1712.6 1640.34L1710.89 1641.37ZM1803.63 1700.18L1805.34 1699.15L1807.16 1702.18H1803.63V1700.18ZM1752.84 1700.18V1702.18H1751.71L1751.13 1701.21L1752.84 1700.18ZM1768.3 1641.37V1639.37H1769.43L1770.01 1640.34L1768.3 1641.37ZM1717.51 1641.37L1715.8 1642.4L1713.98 1639.37H1717.51V1641.37ZM1719.42 1644.54L1717.71 1645.57L1719.42 1644.54ZM1810.25 1700.18V1702.18H1809.12L1808.54 1701.21L1810.25 1700.18ZM1861.04 1700.18L1862.76 1699.15L1864.58 1702.18H1861.04V1700.18ZM1776.83 1644.54L1775.12 1645.57L1776.83 1644.54ZM1774.92 1641.37L1773.21 1642.4L1771.39 1639.37H1774.92V1641.37ZM1825.71 1641.37V1639.37H1826.84L1827.43 1640.34L1825.71 1641.37ZM1655.19 1640.34L1690.52 1699.15L1687.09 1701.21L1651.76 1642.4L1655.19 1640.34ZM1641.03 1641.23L1653.18 1639.39L1653.78 1643.35L1641.63 1645.18L1641.03 1641.23ZM1672.74 1699.38L1639.62 1644.24L1643.05 1642.18L1676.17 1697.32L1672.74 1699.38ZM1688.55 1702.17L1674.2 1700.33L1674.71 1696.36L1689.06 1698.2L1688.55 1702.17ZM1695.43 1698.18H1746.22V1702.18H1695.43V1698.18ZM1663.72 1643.51L1697.15 1699.15L1693.72 1701.21L1660.29 1645.57L1663.72 1643.51ZM1661.82 1640.34L1663.72 1643.51L1660.29 1645.57L1658.39 1642.4L1661.82 1640.34ZM1710.89 1643.37H1660.1V1639.37H1710.89V1643.37ZM1744.5 1701.21L1709.17 1642.4L1712.6 1640.34L1747.93 1699.15L1744.5 1701.21ZM1803.63 1702.18H1752.84V1698.18H1803.63V1702.18ZM1770.01 1640.34L1805.34 1699.15L1801.92 1701.21L1766.59 1642.4L1770.01 1640.34ZM1717.51 1639.37H1768.3V1643.37H1717.51V1639.37ZM1717.71 1645.57L1715.8 1642.4L1719.23 1640.34L1721.13 1643.51L1717.71 1645.57ZM1751.13 1701.21L1717.71 1645.57L1721.13 1643.51L1754.56 1699.15L1751.13 1701.21ZM1810.25 1698.18H1861.04V1702.18H1810.25V1698.18ZM1778.55 1643.51L1811.97 1699.15L1808.54 1701.21L1775.12 1645.57L1778.55 1643.51ZM1776.64 1640.34L1778.55 1643.51L1775.12 1645.57L1773.21 1642.4L1776.64 1640.34ZM1825.71 1643.37H1774.92V1639.37H1825.71V1643.37ZM1859.33 1701.21L1824 1642.4L1827.43 1640.34L1862.76 1699.15L1859.33 1701.21Z" fill="url(#paint15_linear_256_1651)"/>
<g filter="url(#filter6_d_256_1651)">
<path d="M2359.07 1657.89V1640.94H2433.11L2359.07 1657.89ZM2433.11 1640.94V1657.97H2406.68V1703.64H2385.84V1657.97H2359.07V1640.94H2433.11Z" fill="url(#paint16_linear_256_1651)"/>
<path d="M2315.34 1639.59C2323.08 1639.59 2330.05 1641.03 2336.27 1643.91C2342.54 1646.73 2347.42 1650.66 2350.92 1655.69C2354.48 1660.66 2356.26 1666.28 2356.26 1672.55C2356.26 1678.76 2354.48 1684.35 2350.92 1689.32C2347.42 1694.29 2342.56 1698.22 2336.35 1701.1C2330.14 1703.92 2323.16 1705.33 2315.42 1705.33C2307.97 1705.33 2301.08 1703.92 2294.75 1701.1C2288.43 1698.22 2283.4 1694.29 2279.67 1689.32C2276 1684.29 2274.16 1678.7 2274.16 1672.55C2274.16 1666.33 2276 1660.71 2279.67 1655.69C2283.4 1650.66 2288.4 1646.73 2294.67 1643.91C2300.99 1641.03 2307.88 1639.59 2315.34 1639.59ZM2315.42 1689.49C2318.59 1689.49 2321.61 1688.81 2324.49 1687.46C2327.43 1686.1 2329.8 1684.15 2331.61 1681.61C2333.41 1679.07 2334.32 1676.05 2334.32 1672.55C2334.32 1669.04 2333.39 1666.02 2331.52 1663.48C2329.71 1660.88 2327.34 1658.93 2324.41 1657.63C2321.47 1656.28 2318.42 1655.6 2315.26 1655.6C2312.04 1655.6 2308.99 1656.28 2306.1 1657.63C2303.22 1658.99 2300.88 1660.97 2299.07 1663.56C2297.32 1666.11 2296.45 1669.1 2296.45 1672.55C2296.45 1676.05 2297.35 1679.07 2299.16 1681.61C2300.96 1684.15 2303.31 1686.1 2306.19 1687.46C2309.13 1688.81 2312.21 1689.49 2315.42 1689.49Z" fill="url(#paint17_linear_256_1651)"/>
<path d="M2244.04 1640.94C2249.29 1640.94 2253.92 1641.82 2257.94 1643.57C2262 1645.32 2265.14 1647.78 2267.34 1650.94C2269.6 1654.05 2270.73 1657.66 2270.73 1661.79V1662.12C2270.73 1668.9 2268.41 1674.16 2263.78 1677.88C2259.15 1681.55 2252.82 1683.39 2244.8 1683.39H2217.61V1703.64H2196.68V1640.94H2244.04ZM2240.31 1668.56C2243.25 1668.56 2245.42 1668.48 2246.84 1668.31C2248.3 1668.14 2249.52 1667.6 2250.48 1666.7C2251.44 1665.8 2251.92 1664.3 2251.92 1662.21C2251.92 1660.06 2251.44 1658.51 2250.48 1657.55C2249.52 1656.59 2248.28 1656 2246.75 1655.77C2245.23 1655.54 2243.08 1655.43 2240.31 1655.43H2237.52C2236.39 1655.43 2234.41 1655.46 2231.59 1655.52C2228.76 1655.52 2224.1 1655.52 2217.61 1655.52V1668.56H2240.31Z" fill="url(#paint18_linear_256_1651)"/>
<path d="M2160.67 1669.66L2194.81 1703.64H2169.14L2143.72 1677.37V1703.64H2122.79V1640.94H2143.72V1662.72L2167.61 1640.94H2193.54L2160.67 1669.66Z" fill="url(#paint19_linear_256_1651)"/>
<path d="M2035.47 1672.38C2035.47 1666.11 2037.3 1660.46 2040.97 1655.43C2044.7 1650.4 2049.76 1646.48 2056.14 1643.65C2062.58 1640.77 2069.69 1639.33 2077.49 1639.33C2084.49 1639.33 2090.82 1640.46 2096.47 1642.72C2102.12 1644.93 2106.75 1648.06 2110.36 1652.13C2113.98 1656.14 2116.38 1660.85 2117.56 1666.28H2095.87C2095.03 1664.02 2093.59 1662.07 2091.55 1660.43C2089.58 1658.74 2087.35 1657.46 2084.86 1656.62C2082.37 1655.77 2079.95 1655.35 2077.57 1655.35C2074.24 1655.35 2070.99 1656.02 2067.83 1657.38C2064.72 1658.74 2062.18 1660.71 2060.21 1663.31C2058.28 1665.85 2057.32 1668.87 2057.32 1672.38C2057.32 1675.88 2058.28 1678.93 2060.21 1681.53C2062.13 1684.07 2064.61 1686.02 2067.66 1687.37C2070.77 1688.67 2074.07 1689.32 2077.57 1689.32C2081.47 1689.32 2085.06 1688.39 2088.33 1686.53C2091.67 1684.66 2094.12 1682.01 2095.7 1678.56H2117.48C2116.24 1683.93 2113.81 1688.64 2110.19 1692.71C2106.58 1696.72 2101.97 1699.83 2096.38 1702.03C2090.79 1704.23 2084.49 1705.33 2077.49 1705.33C2069.75 1705.33 2062.66 1703.89 2056.22 1701.01C2049.84 1698.13 2044.79 1694.18 2041.06 1689.15C2037.33 1684.12 2035.47 1678.53 2035.47 1672.38Z" fill="url(#paint20_linear_256_1651)"/>
<path d="M2041.7 1703.64H2020.6L2014.76 1692.88H1979.26L1973.41 1703.64H1952.32L1986.29 1640.94H2007.73L2041.7 1703.64ZM1997.05 1660.09L1986.88 1678.73H2007.13L1997.05 1660.09Z" fill="url(#paint21_linear_256_1651)"/>
<path d="M1955.97 1640.94V1678.65C1955.97 1682.71 1955.04 1686.61 1953.18 1690.34C1951.37 1694.07 1948.04 1697.23 1943.18 1699.83C1938.38 1702.37 1931.8 1703.64 1923.44 1703.64C1915.53 1703.64 1909.2 1702.06 1904.46 1698.89C1899.72 1695.73 1896.38 1692.06 1894.46 1687.88C1892.6 1683.7 1891.67 1679.89 1891.67 1676.44H1911.32C1911.32 1679.89 1912.42 1682.85 1914.63 1685.34C1916.83 1687.82 1920.08 1689.07 1924.37 1689.07C1927.65 1689.07 1930.36 1688.13 1932.5 1686.27C1934.65 1684.35 1935.72 1681.81 1935.72 1678.65V1640.94H1955.97Z" fill="url(#paint22_linear_256_1651)"/>
</g>
<defs>
<filter id="filter0_dddddd_256_1651" x="0.829834" y="0.237305" width="4323.44" height="3229.79" filterUnits="userSpaceOnUse" color-interpolation-filters="sRGB">
<feFlood flood-opacity="0" result="BackgroundImageFix"/>
<feColorMatrix in="SourceAlpha" type="matrix" values="0 0 0 0 0 0 0 0 0 0 0 0 0 0 0 0 0 0 127 0" result="hardAlpha"/>
<feOffset/>
<feGaussianBlur stdDeviation="17.548"/>
<feColorMatrix type="matrix" values="0 0 0 0 0.984314 0 0 0 0 0.890196 0 0 0 0 0.458824 0 0 0 1 0"/>
<feBlend mode="normal" in2="BackgroundImageFix" result="effect1_dropShadow_256_1651"/>
<feColorMatrix in="SourceAlpha" type="matrix" values="0 0 0 0 0 0 0 0 0 0 0 0 0 0 0 0 0 0 127 0" result="hardAlpha"/>
<feOffset/>
<feGaussianBlur stdDeviation="35.096"/>
<feColorMatrix type="matrix" values="0 0 0 0 0.984314 0 0 0 0 0.890196 0 0 0 0 0.458824 0 0 0 1 0"/>
<feBlend mode="normal" in2="effect1_dropShadow_256_1651" result="effect2_dropShadow_256_1651"/>
<feColorMatrix in="SourceAlpha" type="matrix" values="0 0 0 0 0 0 0 0 0 0 0 0 0 0 0 0 0 0 127 0" result="hardAlpha"/>
<feOffset/>
<feGaussianBlur stdDeviation="122.836"/>
<feColorMatrix type="matrix" values="0 0 0 0 0.984314 0 0 0 0 0.890196 0 0 0 0 0.458824 0 0 0 1 0"/>
<feBlend mode="normal" in2="effect2_dropShadow_256_1651" result="effect3_dropShadow_256_1651"/>
<feColorMatrix in="SourceAlpha" type="matrix" values="0 0 0 0 0 0 0 0 0 0 0 0 0 0 0 0 0 0 127 0" result="hardAlpha"/>
<feOffset/>
<feGaussianBlur stdDeviation="245.672"/>
<feColorMatrix type="matrix" values="0 0 0 0 0.984314 0 0 0 0 0.890196 0 0 0 0 0.458824 0 0 0 1 0"/>
<feBlend mode="normal" in2="effect3_dropShadow_256_1651" result="effect4_dropShadow_256_1651"/>
<feColorMatrix in="SourceAlpha" type="matrix" values="0 0 0 0 0 0 0 0 0 0 0 0 0 0 0 0 0 0 127 0" result="hardAlpha"/>
<feOffset/>
<feGaussianBlur stdDeviation="421.151"/>
<feColorMatrix type="matrix" values="0 0 0 0 0.984314 0 0 0 0 0.890196 0 0 0 0 0.458824 0 0 0 1 0"/>
<feBlend mode="normal" in2="effect4_dropShadow_256_1651" result="effect5_dropShadow_256_1651"/>
<feColorMatrix in="SourceAlpha" type="matrix" values="0 0 0 0 0 0 0 0 0 0 0 0 0 0 0 0 0 0 127 0" result="hardAlpha"/>
<feOffset/>
<feGaussianBlur stdDeviation="737.015"/>
<feColorMatrix type="matrix" values="0 0 0 0 0.984314 0 0 0 0 0.890196 0 0 0 0 0.458824 0 0 0 1 0"/>
<feBlend mode="normal" in2="effect5_dropShadow_256_1651" result="effect6_dropShadow_256_1651"/>
<feBlend mode="normal" in="SourceGraphic" in2="effect6_dropShadow_256_1651" result="shape"/>
</filter>
<filter id="filter1_dddddd_256_1651" x="1338.76" y="905.194" width="1649.19" height="1134.11" filterUnits="userSpaceOnUse" color-interpolation-filters="sRGB">
<feFlood flood-opacity="0" result="BackgroundImageFix"/>
<feColorMatrix in="SourceAlpha" type="matrix" values="0 0 0 0 0 0 0 0 0 0 0 0 0 0 0 0 0 0 127 0" result="hardAlpha"/>
<feOffset/>
<feGaussianBlur stdDeviation="6.65245"/>
<feColorMatrix type="matrix" values="0 0 0 0 0.984314 0 0 0 0 0.890196 0 0 0 0 0.458824 0 0 0 1 0"/>
<feBlend mode="normal" in2="BackgroundImageFix" result="effect1_dropShadow_256_1651"/>
<feColorMatrix in="SourceAlpha" type="matrix" values="0 0 0 0 0 0 0 0 0 0 0 0 0 0 0 0 0 0 127 0" result="hardAlpha"/>
<feOffset/>
<feGaussianBlur stdDeviation="13.3049"/>
<feColorMatrix type="matrix" values="0 0 0 0 0.984314 0 0 0 0 0.890196 0 0 0 0 0.458824 0 0 0 1 0"/>
<feBlend mode="normal" in2="effect1_dropShadow_256_1651" result="effect2_dropShadow_256_1651"/>
<feColorMatrix in="SourceAlpha" type="matrix" values="0 0 0 0 0 0 0 0 0 0 0 0 0 0 0 0 0 0 127 0" result="hardAlpha"/>
<feOffset/>
<feGaussianBlur stdDeviation="46.5672"/>
<feColorMatrix type="matrix" values="0 0 0 0 0.984314 0 0 0 0 0.890196 0 0 0 0 0.458824 0 0 0 1 0"/>
<feBlend mode="normal" in2="effect2_dropShadow_256_1651" result="effect3_dropShadow_256_1651"/>
<feColorMatrix in="SourceAlpha" type="matrix" values="0 0 0 0 0 0 0 0 0 0 0 0 0 0 0 0 0 0 127 0" result="hardAlpha"/>
<feOffset/>
<feGaussianBlur stdDeviation="93.1343"/>
<feColorMatrix type="matrix" values="0 0 0 0 0.984314 0 0 0 0 0.890196 0 0 0 0 0.458824 0 0 0 1 0"/>
<feBlend mode="normal" in2="effect3_dropShadow_256_1651" result="effect4_dropShadow_256_1651"/>
<feColorMatrix in="SourceAlpha" type="matrix" values="0 0 0 0 0 0 0 0 0 0 0 0 0 0 0 0 0 0 127 0" result="hardAlpha"/>
<feOffset/>
<feGaussianBlur stdDeviation="159.659"/>
<feColorMatrix type="matrix" values="0 0 0 0 0.984314 0 0 0 0 0.890196 0 0 0 0 0.458824 0 0 0 1 0"/>
<feBlend mode="normal" in2="effect4_dropShadow_256_1651" result="effect5_dropShadow_256_1651"/>
<feColorMatrix in="SourceAlpha" type="matrix" values="0 0 0 0 0 0 0 0 0 0 0 0 0 0 0 0 0 0 127 0" result="hardAlpha"/>
<feOffset/>
<feGaussianBlur stdDeviation="279.403"/>
<feColorMatrix type="matrix" values="0 0 0 0 0.984314 0 0 0 0 0.890196 0 0 0 0 0.458824 0 0 0 1 0"/>
<feBlend mode="normal" in2="effect5_dropShadow_256_1651" result="effect6_dropShadow_256_1651"/>
<feBlend mode="normal" in="SourceGraphic" in2="effect6_dropShadow_256_1651" result="shape"/>
</filter>
<filter id="filter2_dddddd_256_1651" x="1251.81" y="1323.98" width="1229.15" height="847.543" filterUnits="userSpaceOnUse" color-interpolation-filters="sRGB">
<feFlood flood-opacity="0" result="BackgroundImageFix"/>
<feColorMatrix in="SourceAlpha" type="matrix" values="0 0 0 0 0 0 0 0 0 0 0 0 0 0 0 0 0 0 127 0" result="hardAlpha"/>
<feOffset/>
<feGaussianBlur stdDeviation="4.9467"/>
<feColorMatrix type="matrix" values="0 0 0 0 0.984314 0 0 0 0 0.890196 0 0 0 0 0.458824 0 0 0 1 0"/>
<feBlend mode="normal" in2="BackgroundImageFix" result="effect1_dropShadow_256_1651"/>
<feColorMatrix in="SourceAlpha" type="matrix" values="0 0 0 0 0 0 0 0 0 0 0 0 0 0 0 0 0 0 127 0" result="hardAlpha"/>
<feOffset/>
<feGaussianBlur stdDeviation="9.89339"/>
<feColorMatrix type="matrix" values="0 0 0 0 0.984314 0 0 0 0 0.890196 0 0 0 0 0.458824 0 0 0 1 0"/>
<feBlend mode="normal" in2="effect1_dropShadow_256_1651" result="effect2_dropShadow_256_1651"/>
<feColorMatrix in="SourceAlpha" type="matrix" values="0 0 0 0 0 0 0 0 0 0 0 0 0 0 0 0 0 0 127 0" result="hardAlpha"/>
<feOffset/>
<feGaussianBlur stdDeviation="34.6269"/>
<feColorMatrix type="matrix" values="0 0 0 0 0.984314 0 0 0 0 0.890196 0 0 0 0 0.458824 0 0 0 1 0"/>
<feBlend mode="normal" in2="effect2_dropShadow_256_1651" result="effect3_dropShadow_256_1651"/>
<feColorMatrix in="SourceAlpha" type="matrix" values="0 0 0 0 0 0 0 0 0 0 0 0 0 0 0 0 0 0 127 0" result="hardAlpha"/>
<feOffset/>
<feGaussianBlur stdDeviation="69.2537"/>
<feColorMatrix type="matrix" values="0 0 0 0 0.984314 0 0 0 0 0.890196 0 0 0 0 0.458824 0 0 0 1 0"/>
<feBlend mode="normal" in2="effect3_dropShadow_256_1651" result="effect4_dropShadow_256_1651"/>
<feColorMatrix in="SourceAlpha" type="matrix" values="0 0 0 0 0 0 0 0 0 0 0 0 0 0 0 0 0 0 127 0" result="hardAlpha"/>
<feOffset/>
<feGaussianBlur stdDeviation="118.721"/>
<feColorMatrix type="matrix" values="0 0 0 0 0.984314 0 0 0 0 0.890196 0 0 0 0 0.458824 0 0 0 1 0"/>
<feBlend mode="normal" in2="effect4_dropShadow_256_1651" result="effect5_dropShadow_256_1651"/>
<feColorMatrix in="SourceAlpha" type="matrix" values="0 0 0 0 0 0 0 0 0 0 0 0 0 0 0 0 0 0 127 0" result="hardAlpha"/>
<feOffset/>
<feGaussianBlur stdDeviation="207.761"/>
<feColorMatrix type="matrix" values="0 0 0 0 0.984314 0 0 0 0 0.890196 0 0 0 0 0.458824 0 0 0 1 0"/>
<feBlend mode="normal" in2="effect5_dropShadow_256_1651" result="effect6_dropShadow_256_1651"/>
<feBlend mode="normal" in="SourceGraphic" in2="effect6_dropShadow_256_1651" result="shape"/>
</filter>
<filter id="filter3_dddddd_256_1651" x="1842.4" y="1323.98" width="1229.15" height="847.543" filterUnits="userSpaceOnUse" color-interpolation-filters="sRGB">
<feFlood flood-opacity="0" result="BackgroundImageFix"/>
<feColorMatrix in="SourceAlpha" type="matrix" values="0 0 0 0 0 0 0 0 0 0 0 0 0 0 0 0 0 0 127 0" result="hardAlpha"/>
<feOffset/>
<feGaussianBlur stdDeviation="4.9467"/>
<feColorMatrix type="matrix" values="0 0 0 0 0.984314 0 0 0 0 0.890196 0 0 0 0 0.458824 0 0 0 1 0"/>
<feBlend mode="normal" in2="BackgroundImageFix" result="effect1_dropShadow_256_1651"/>
<feColorMatrix in="SourceAlpha" type="matrix" values="0 0 0 0 0 0 0 0 0 0 0 0 0 0 0 0 0 0 127 0" result="hardAlpha"/>
<feOffset/>
<feGaussianBlur stdDeviation="9.89339"/>
<feColorMatrix type="matrix" values="0 0 0 0 0.984314 0 0 0 0 0.890196 0 0 0 0 0.458824 0 0 0 1 0"/>
<feBlend mode="normal" in2="effect1_dropShadow_256_1651" result="effect2_dropShadow_256_1651"/>
<feColorMatrix in="SourceAlpha" type="matrix" values="0 0 0 0 0 0 0 0 0 0 0 0 0 0 0 0 0 0 127 0" result="hardAlpha"/>
<feOffset/>
<feGaussianBlur stdDeviation="34.6269"/>
<feColorMatrix type="matrix" values="0 0 0 0 0.984314 0 0 0 0 0.890196 0 0 0 0 0.458824 0 0 0 1 0"/>
<feBlend mode="normal" in2="effect2_dropShadow_256_1651" result="effect3_dropShadow_256_1651"/>
<feColorMatrix in="SourceAlpha" type="matrix" values="0 0 0 0 0 0 0 0 0 0 0 0 0 0 0 0 0 0 127 0" result="hardAlpha"/>
<feOffset/>
<feGaussianBlur stdDeviation="69.2537"/>
<feColorMatrix type="matrix" values="0 0 0 0 0.984314 0 0 0 0 0.890196 0 0 0 0 0.458824 0 0 0 1 0"/>
<feBlend mode="normal" in2="effect3_dropShadow_256_1651" result="effect4_dropShadow_256_1651"/>
<feColorMatrix in="SourceAlpha" type="matrix" values="0 0 0 0 0 0 0 0 0 0 0 0 0 0 0 0 0 0 127 0" result="hardAlpha"/>
<feOffset/>
<feGaussianBlur stdDeviation="118.721"/>
<feColorMatrix type="matrix" values="0 0 0 0 0.984314 0 0 0 0 0.890196 0 0 0 0 0.458824 0 0 0 1 0"/>
<feBlend mode="normal" in2="effect4_dropShadow_256_1651" result="effect5_dropShadow_256_1651"/>
<feColorMatrix in="SourceAlpha" type="matrix" values="0 0 0 0 0 0 0 0 0 0 0 0 0 0 0 0 0 0 127 0" result="hardAlpha"/>
<feOffset/>
<feGaussianBlur stdDeviation="207.761"/>
<feColorMatrix type="matrix" values="0 0 0 0 0.984314 0 0 0 0 0.890196 0 0 0 0 0.458824 0 0 0 1 0"/>
<feBlend mode="normal" in2="effect5_dropShadow_256_1651" result="effect6_dropShadow_256_1651"/>
<feBlend mode="normal" in="SourceGraphic" in2="effect6_dropShadow_256_1651" result="shape"/>
</filter>
<filter id="filter4_dddddd_256_1651" x="1279.68" y="1314.97" width="522.462" height="582.272" filterUnits="userSpaceOnUse" color-interpolation-filters="sRGB">
<feFlood flood-opacity="0" result="BackgroundImageFix"/>
<feColorMatrix in="SourceAlpha" type="matrix" values="0 0 0 0 0 0 0 0 0 0 0 0 0 0 0 0 0 0 127 0" result="hardAlpha"/>
<feOffset/>
<feGaussianBlur stdDeviation="2.4446"/>
<feColorMatrix type="matrix" values="0 0 0 0 0.984314 0 0 0 0 0.890196 0 0 0 0 0.458824 0 0 0 1 0"/>
<feBlend mode="normal" in2="BackgroundImageFix" result="effect1_dropShadow_256_1651"/>
<feColorMatrix in="SourceAlpha" type="matrix" values="0 0 0 0 0 0 0 0 0 0 0 0 0 0 0 0 0 0 127 0" result="hardAlpha"/>
<feOffset/>
<feGaussianBlur stdDeviation="4.8892"/>
<feColorMatrix type="matrix" values="0 0 0 0 0.984314 0 0 0 0 0.890196 0 0 0 0 0.458824 0 0 0 1 0"/>
<feBlend mode="normal" in2="effect1_dropShadow_256_1651" result="effect2_dropShadow_256_1651"/>
<feColorMatrix in="SourceAlpha" type="matrix" values="0 0 0 0 0 0 0 0 0 0 0 0 0 0 0 0 0 0 127 0" result="hardAlpha"/>
<feOffset/>
<feGaussianBlur stdDeviation="17.1122"/>
<feColorMatrix type="matrix" values="0 0 0 0 0.984314 0 0 0 0 0.890196 0 0 0 0 0.458824 0 0 0 1 0"/>
<feBlend mode="normal" in2="effect2_dropShadow_256_1651" result="effect3_dropShadow_256_1651"/>
<feColorMatrix in="SourceAlpha" type="matrix" values="0 0 0 0 0 0 0 0 0 0 0 0 0 0 0 0 0 0 127 0" result="hardAlpha"/>
<feOffset/>
<feGaussianBlur stdDeviation="34.2244"/>
<feColorMatrix type="matrix" values="0 0 0 0 0.984314 0 0 0 0 0.890196 0 0 0 0 0.458824 0 0 0 1 0"/>
<feBlend mode="normal" in2="effect3_dropShadow_256_1651" result="effect4_dropShadow_256_1651"/>
<feColorMatrix in="SourceAlpha" type="matrix" values="0 0 0 0 0 0 0 0 0 0 0 0 0 0 0 0 0 0 127 0" result="hardAlpha"/>
<feOffset/>
<feGaussianBlur stdDeviation="58.6705"/>
<feColorMatrix type="matrix" values="0 0 0 0 0.984314 0 0 0 0 0.890196 0 0 0 0 0.458824 0 0 0 1 0"/>
<feBlend mode="normal" in2="effect4_dropShadow_256_1651" result="effect5_dropShadow_256_1651"/>
<feColorMatrix in="SourceAlpha" type="matrix" values="0 0 0 0 0 0 0 0 0 0 0 0 0 0 0 0 0 0 127 0" result="hardAlpha"/>
<feOffset/>
<feGaussianBlur stdDeviation="102.673"/>
<feColorMatrix type="matrix" values="0 0 0 0 0.984314 0 0 0 0 0.890196 0 0 0 0 0.458824 0 0 0 1 0"/>
<feBlend mode="normal" in2="effect5_dropShadow_256_1651" result="effect6_dropShadow_256_1651"/>
<feBlend mode="normal" in="SourceGraphic" in2="effect6_dropShadow_256_1651" result="shape"/>
</filter>
<filter id="filter5_dddddd_256_1651" x="2524.47" y="1314.97" width="522.462" height="582.272" filterUnits="userSpaceOnUse" color-interpolation-filters="sRGB">
<feFlood flood-opacity="0" result="BackgroundImageFix"/>
<feColorMatrix in="SourceAlpha" type="matrix" values="0 0 0 0 0 0 0 0 0 0 0 0 0 0 0 0 0 0 127 0" result="hardAlpha"/>
<feOffset/>
<feGaussianBlur stdDeviation="2.4446"/>
<feColorMatrix type="matrix" values="0 0 0 0 0.984314 0 0 0 0 0.890196 0 0 0 0 0.458824 0 0 0 1 0"/>
<feBlend mode="normal" in2="BackgroundImageFix" result="effect1_dropShadow_256_1651"/>
<feColorMatrix in="SourceAlpha" type="matrix" values="0 0 0 0 0 0 0 0 0 0 0 0 0 0 0 0 0 0 127 0" result="hardAlpha"/>
<feOffset/>
<feGaussianBlur stdDeviation="4.8892"/>
<feColorMatrix type="matrix" values="0 0 0 0 0.984314 0 0 0 0 0.890196 0 0 0 0 0.458824 0 0 0 1 0"/>
<feBlend mode="normal" in2="effect1_dropShadow_256_1651" result="effect2_dropShadow_256_1651"/>
<feColorMatrix in="SourceAlpha" type="matrix" values="0 0 0 0 0 0 0 0 0 0 0 0 0 0 0 0 0 0 127 0" result="hardAlpha"/>
<feOffset/>
<feGaussianBlur stdDeviation="17.1122"/>
<feColorMatrix type="matrix" values="0 0 0 0 0.984314 0 0 0 0 0.890196 0 0 0 0 0.458824 0 0 0 1 0"/>
<feBlend mode="normal" in2="effect2_dropShadow_256_1651" result="effect3_dropShadow_256_1651"/>
<feColorMatrix in="SourceAlpha" type="matrix" values="0 0 0 0 0 0 0 0 0 0 0 0 0 0 0 0 0 0 127 0" result="hardAlpha"/>
<feOffset/>
<feGaussianBlur stdDeviation="34.2244"/>
<feColorMatrix type="matrix" values="0 0 0 0 0.984314 0 0 0 0 0.890196 0 0 0 0 0.458824 0 0 0 1 0"/>
<feBlend mode="normal" in2="effect3_dropShadow_256_1651" result="effect4_dropShadow_256_1651"/>
<feColorMatrix in="SourceAlpha" type="matrix" values="0 0 0 0 0 0 0 0 0 0 0 0 0 0 0 0 0 0 127 0" result="hardAlpha"/>
<feOffset/>
<feGaussianBlur stdDeviation="58.6705"/>
<feColorMatrix type="matrix" values="0 0 0 0 0.984314 0 0 0 0 0.890196 0 0 0 0 0.458824 0 0 0 1 0"/>
<feBlend mode="normal" in2="effect4_dropShadow_256_1651" result="effect5_dropShadow_256_1651"/>
<feColorMatrix in="SourceAlpha" type="matrix" values="0 0 0 0 0 0 0 0 0 0 0 0 0 0 0 0 0 0 127 0" result="hardAlpha"/>
<feOffset/>
<feGaussianBlur stdDeviation="102.673"/>
<feColorMatrix type="matrix" values="0 0 0 0 0.984314 0 0 0 0 0.890196 0 0 0 0 0.458824 0 0 0 1 0"/>
<feBlend mode="normal" in2="effect5_dropShadow_256_1651" result="effect6_dropShadow_256_1651"/>
<feBlend mode="normal" in="SourceGraphic" in2="effect6_dropShadow_256_1651" result="shape"/>
</filter>
<filter id="filter6_d_256_1651" x="1855.87" y="1607.53" width="613.048" height="137.6" filterUnits="userSpaceOnUse" color-interpolation-filters="sRGB">
<feFlood flood-opacity="0" result="BackgroundImageFix"/>
<feColorMatrix in="SourceAlpha" type="matrix" values="0 0 0 0 0 0 0 0 0 0 0 0 0 0 0 0 0 0 127 0" result="hardAlpha"/>
<feOffset dy="4"/>
<feGaussianBlur stdDeviation="17.9"/>
<feComposite in2="hardAlpha" operator="out"/>
<feColorMatrix type="matrix" values="0 0 0 0 0 0 0 0 0 0 0 0 0 0 0 0 0 0 0.8 0"/>
<feBlend mode="normal" in2="BackgroundImageFix" result="effect1_dropShadow_256_1651"/>
<feBlend mode="normal" in="SourceGraphic" in2="effect1_dropShadow_256_1651" result="shape"/>
</filter>
<linearGradient id="paint0_linear_256_1651" x1="2738.46" y1="1782.64" x2="2586.39" y2="1322.73" gradientUnits="userSpaceOnUse">
<stop stop-color="#BF7943"/>
<stop offset="0.425" stop-color="#FFE977"/>
<stop offset="1" stop-color="#C27A44"/>
</linearGradient>
<linearGradient id="paint1_linear_256_1651" x1="2381.69" y1="1479.79" x2="2380.79" y2="1456.86" gradientUnits="userSpaceOnUse">
<stop stop-color="#BF7943"/>
<stop offset="0.425" stop-color="#FFE977"/>
<stop offset="1" stop-color="#C27A44"/>
</linearGradient>
<linearGradient id="paint2_linear_256_1651" x1="2381.69" y1="1479.79" x2="2380.79" y2="1456.86" gradientUnits="userSpaceOnUse">
<stop stop-color="#BF7943"/>
<stop offset="0.425" stop-color="#FFE977"/>
<stop offset="1" stop-color="#C27A44"/>
</linearGradient>
<linearGradient id="paint3_linear_256_1651" x1="2028.75" y1="1740.21" x2="2027.54" y2="1763.11" gradientUnits="userSpaceOnUse">
<stop stop-color="#BF7943"/>
<stop offset="0.425" stop-color="#FFE977"/>
<stop offset="1" stop-color="#C27A44"/>
</linearGradient>
<linearGradient id="paint4_linear_256_1651" x1="2028.75" y1="1740.21" x2="2027.54" y2="1763.11" gradientUnits="userSpaceOnUse">
<stop stop-color="#BF7943"/>
<stop offset="0.425" stop-color="#FFE977"/>
<stop offset="1" stop-color="#C27A44"/>
</linearGradient>
<linearGradient id="paint5_linear_256_1651" x1="2619.33" y1="1740.21" x2="2618.12" y2="1763.11" gradientUnits="userSpaceOnUse">
<stop stop-color="#BF7943"/>
<stop offset="0.425" stop-color="#FFE977"/>
<stop offset="1" stop-color="#C27A44"/>
</linearGradient>
<linearGradient id="paint6_linear_256_1651" x1="2619.33" y1="1740.21" x2="2618.12" y2="1763.11" gradientUnits="userSpaceOnUse">
<stop stop-color="#BF7943"/>
<stop offset="0.425" stop-color="#FFE977"/>
<stop offset="1" stop-color="#C27A44"/>
</linearGradient>
<linearGradient id="paint7_linear_256_1651" x1="1594.66" y1="1667.91" x2="1570.23" y2="1678.73" gradientUnits="userSpaceOnUse">
<stop stop-color="#BF7943"/>
<stop offset="0.425" stop-color="#FFE977"/>
<stop offset="1" stop-color="#C27A44"/>
</linearGradient>
<linearGradient id="paint8_linear_256_1651" x1="1594.66" y1="1667.91" x2="1570.23" y2="1678.73" gradientUnits="userSpaceOnUse">
<stop stop-color="#BF7943"/>
<stop offset="0.425" stop-color="#FFE977"/>
<stop offset="1" stop-color="#C27A44"/>
</linearGradient>
<linearGradient id="paint9_linear_256_1651" x1="2731.96" y1="1667.91" x2="2756.38" y2="1678.73" gradientUnits="userSpaceOnUse">
<stop stop-color="#BF7943"/>
<stop offset="0.425" stop-color="#FFE977"/>
<stop offset="1" stop-color="#C27A44"/>
</linearGradient>
<linearGradient id="paint10_linear_256_1651" x1="2731.96" y1="1667.91" x2="2756.38" y2="1678.73" gradientUnits="userSpaceOnUse">
<stop stop-color="#BF7943"/>
<stop offset="0.425" stop-color="#FFE977"/>
<stop offset="1" stop-color="#C27A44"/>
</linearGradient>
<linearGradient id="paint11_linear_256_1651" x1="2674.08" y1="1736.51" x2="2577.33" y2="1386.01" gradientUnits="userSpaceOnUse">
<stop stop-color="#BF7943"/>
<stop offset="0.425" stop-color="#FFE977"/>
<stop offset="1" stop-color="#C27A44"/>
</linearGradient>
<linearGradient id="paint12_linear_256_1651" x1="2732.32" y1="1729.27" x2="2554.76" y2="1609.91" gradientUnits="userSpaceOnUse">
<stop stop-color="#FFE977"/>
<stop offset="1" stop-color="#C27A44" stop-opacity="0"/>
</linearGradient>
<linearGradient id="paint13_linear_256_1651" x1="2481.72" y1="1706.25" x2="2521.4" y2="1615.57" gradientUnits="userSpaceOnUse">
<stop stop-color="#BF7943"/>
<stop offset="0.425" stop-color="#FFE977"/>
<stop offset="1" stop-color="#C27A44"/>
</linearGradient>
<linearGradient id="paint14_linear_256_1651" x1="1592.75" y1="1729.27" x2="1770.31" y2="1609.91" gradientUnits="userSpaceOnUse">
<stop stop-color="#FFE977"/>
<stop offset="1" stop-color="#C27A44" stop-opacity="0"/>
</linearGradient>
<linearGradient id="paint15_linear_256_1651" x1="1843.35" y1="1706.25" x2="1803.67" y2="1615.57" gradientUnits="userSpaceOnUse">
<stop stop-color="#BF7943"/>
<stop offset="0.425" stop-color="#FFE977"/>
<stop offset="1" stop-color="#C27A44"/>
</linearGradient>
<linearGradient id="paint16_linear_256_1651" x1="1743.67" y1="1639.33" x2="2443.92" y2="1448.48" gradientUnits="userSpaceOnUse">
<stop stop-color="#24FF00"/>
<stop offset="0.53" stop-color="#00B3FF"/>
<stop offset="1" stop-color="#DB00FF"/>
</linearGradient>
<linearGradient id="paint17_linear_256_1651" x1="1743.67" y1="1639.33" x2="2443.92" y2="1448.48" gradientUnits="userSpaceOnUse">
<stop stop-color="#24FF00"/>
<stop offset="0.53" stop-color="#00B3FF"/>
<stop offset="1" stop-color="#DB00FF"/>
</linearGradient>
<linearGradient id="paint18_linear_256_1651" x1="1743.67" y1="1639.33" x2="2443.92" y2="1448.48" gradientUnits="userSpaceOnUse">
<stop stop-color="#24FF00"/>
<stop offset="0.53" stop-color="#00B3FF"/>
<stop offset="1" stop-color="#DB00FF"/>
</linearGradient>
<linearGradient id="paint19_linear_256_1651" x1="1743.67" y1="1639.33" x2="2443.92" y2="1448.48" gradientUnits="userSpaceOnUse">
<stop stop-color="#24FF00"/>
<stop offset="0.53" stop-color="#00B3FF"/>
<stop offset="1" stop-color="#DB00FF"/>
</linearGradient>
<linearGradient id="paint20_linear_256_1651" x1="1743.67" y1="1639.33" x2="2443.92" y2="1448.48" gradientUnits="userSpaceOnUse">
<stop stop-color="#24FF00"/>
<stop offset="0.53" stop-color="#00B3FF"/>
<stop offset="1" stop-color="#DB00FF"/>
</linearGradient>
<linearGradient id="paint21_linear_256_1651" x1="1743.67" y1="1639.33" x2="2443.92" y2="1448.48" gradientUnits="userSpaceOnUse">
<stop stop-color="#24FF00"/>
<stop offset="0.53" stop-color="#00B3FF"/>
<stop offset="1" stop-color="#DB00FF"/>
</linearGradient>
<linearGradient id="paint22_linear_256_1651" x1="1743.67" y1="1639.33" x2="2443.92" y2="1448.48" gradientUnits="userSpaceOnUse">
<stop stop-color="#24FF00"/>
<stop offset="0.53" stop-color="#00B3FF"/>
<stop offset="1" stop-color="#DB00FF"/>
</linearGradient>
</defs>
</svg>
